<svg width="106" height="16" viewBox="0 0 106 16" fill="none" xmlns="http://www.w3.org/2000/svg">
<g clip-path="url(#clip0_2_5)">
<path d="M9.85207 11.2546C9.85207 12 9.74063 12.6686 9.51009 13.2565C9.28338 13.8444 8.95677 14.3362 8.53026 14.7397C8.10375 15.1393 7.58501 15.4467 6.97791 15.6619C6.3708 15.877 5.68684 15.9846 4.92603 15.9846C3.91162 15.9846 2.99712 15.7887 2.18252 15.3929C1.36792 14.9971 0.641691 14.44 0 13.7214L1.72142 11.2392C2.22863 11.7733 2.74736 12.1691 3.27378 12.4188C3.80019 12.6724 4.26513 12.7992 4.66475 12.7992C5.10663 12.7992 5.45629 12.6609 5.71758 12.3881C5.97887 12.1153 6.10951 11.7118 6.10951 11.1777V1.80211H9.85591V11.2546H9.85207Z" fill="#2E3192"/>
<path d="M19.3622 8.41114C18.682 8.06532 18.0442 7.79251 17.4486 7.60038C16.853 7.40826 16.3381 7.30836 15.8963 7.30836C15.6004 7.30836 15.366 7.36599 15.1854 7.47742C15.0048 7.58886 14.9164 7.76177 14.9164 7.98847C14.9164 8.23055 15.0548 8.41883 15.3353 8.55716C15.6158 8.69548 15.9654 8.82613 16.3881 8.94909C16.8069 9.0682 17.2642 9.20653 17.7483 9.36023C18.2363 9.51393 18.6897 9.71758 19.1085 9.97118C19.5274 10.2248 19.8809 10.5514 20.1614 10.951C20.4419 11.3506 20.5802 11.8655 20.5802 12.4918C20.5802 13.0528 20.4688 13.5485 20.2421 13.975C20.0154 14.4015 19.6964 14.7666 19.2815 15.0663C18.8665 15.366 18.3785 15.5927 17.8098 15.7464C17.2411 15.9001 16.6225 15.9769 15.9577 15.9769C15.0355 15.9769 14.1556 15.8463 13.3141 15.585C12.4726 15.3237 11.7195 14.9395 11.0509 14.4323L12.1921 12.1306C12.8184 12.5572 13.4678 12.8876 14.1364 13.122C14.805 13.3564 15.439 13.4717 16.0384 13.4717C16.3573 13.4717 16.6225 13.4179 16.83 13.3103C17.0375 13.2027 17.1412 13.0375 17.1412 12.8108C17.1412 12.5572 17.0029 12.3612 16.7301 12.219C16.4573 12.0807 16.1114 11.9462 15.7003 11.8194C15.2853 11.6926 14.8396 11.5581 14.3593 11.4083C13.879 11.2622 13.4294 11.0663 13.0183 10.8165C12.6033 10.5706 12.2613 10.2478 11.9885 9.85591C11.7157 9.46398 11.5773 8.95293 11.5773 8.32277C11.5773 7.76177 11.6888 7.26225 11.9193 6.82036C12.146 6.37848 12.4573 6.01345 12.8492 5.72142C13.2411 5.42939 13.7137 5.20269 14.2594 5.04899C14.805 4.89529 15.4006 4.81844 16.0423 4.81844C16.8415 4.81844 17.6254 4.92603 18.3939 5.13737C19.1623 5.3487 19.8924 5.66378 20.5879 6.07877L19.366 8.40346L19.3622 8.41114Z" fill="#2E3192"/>
<path d="M27.5312 4.86456C28.4265 4.86456 29.2373 4.99904 29.9635 5.26417C30.6897 5.53314 31.316 5.90586 31.8348 6.38617C32.3535 6.86648 32.757 7.44669 33.0375 8.1268C33.318 8.80692 33.4563 9.56004 33.4563 10.39C33.4563 11.22 33.318 11.9923 33.0375 12.6724C32.757 13.3525 32.3573 13.9328 31.8348 14.4131C31.3122 14.8934 30.6897 15.2661 29.9635 15.5351C29.2373 15.804 28.4265 15.9347 27.5312 15.9347C26.6359 15.9347 25.8213 15.8002 25.0874 15.5351C24.3535 15.2699 23.7272 14.8934 23.2046 14.4131C22.682 13.9328 22.2824 13.3525 22.0019 12.6724C21.7214 11.9923 21.5831 11.2315 21.5831 10.39C21.5831 9.54851 21.7214 8.80692 22.0019 8.1268C22.2824 7.44669 22.682 6.86648 23.2046 6.38617C23.7272 5.90586 24.3535 5.53314 25.0874 5.26417C25.8213 4.99904 26.6359 4.86456 27.5312 4.86456ZM27.5312 7.7464C26.8357 7.7464 26.2786 7.99232 25.8598 8.48799C25.4409 8.98367 25.2296 9.6292 25.2296 10.4323C25.2296 11.2354 25.4409 11.9001 25.8598 12.3958C26.2786 12.8915 26.8357 13.1374 27.5312 13.1374C28.2267 13.1374 28.7646 12.8915 29.1835 12.3958C29.6023 11.9001 29.8136 11.2469 29.8136 10.4323C29.8136 9.61768 29.6023 8.98367 29.1835 8.48799C28.7646 7.99232 28.2113 7.7464 27.5312 7.7464Z" fill="#231F20"/>
<path d="M38.6859 11.7733C38.6859 12.1614 38.7781 12.4419 38.9548 12.6148C39.1316 12.7877 39.3583 12.8761 39.6273 12.8761C39.9347 12.8761 40.2767 12.7839 40.6494 12.5956L40.9491 15.5389C40.6033 15.6849 40.2536 15.8002 39.9078 15.8809C39.562 15.9616 39.2123 16 38.8665 16C38.3593 16 37.8751 15.9155 37.414 15.7502C36.9529 15.585 36.5495 15.3314 36.2036 14.9971C35.854 14.6628 35.5812 14.244 35.3737 13.7368C35.1662 13.2296 35.0624 12.6302 35.0624 11.9347V0.960613H38.6859V11.7733Z" fill="#231F20"/>
<path d="M49.2181 15.8194V14.0788C48.8569 14.7051 48.3842 15.1777 47.7963 15.489C47.2084 15.804 46.536 15.9654 45.7752 15.9808C45.2027 15.9808 44.6724 15.8847 44.1921 15.6888C43.7118 15.4966 43.3045 15.22 42.9702 14.8588C42.6359 14.4976 42.3746 14.0634 42.1902 13.5485C42.0019 13.0336 41.9097 12.4649 41.9097 11.8348V4.98751H45.5331V10.8165C45.5331 11.4313 45.6868 11.9116 45.9942 12.2574C46.3016 12.6071 46.7205 12.78 47.2546 12.78C47.8694 12.7685 48.3497 12.5379 48.6955 12.0884C49.0413 11.6426 49.2181 11.0586 49.2181 10.3362V4.98751H52.8415V15.8194H49.2181Z" fill="#231F20"/>
<path d="M54.5245 7.34678V4.98367H56.0269V2.50144H59.6311V4.98367H62.4323V7.34678H59.6311V11.9539C59.6311 12.342 59.7157 12.6263 59.8809 12.8146C60.0461 13.0029 60.2767 13.0951 60.5725 13.0951C60.7992 13.0951 61.0298 13.0567 61.2642 12.9837C61.4986 12.9107 61.7214 12.8261 61.9366 12.7339L62.6167 15.2584C62.2286 15.4851 61.7791 15.6619 61.2642 15.7887C60.7493 15.9155 60.2267 15.9808 59.6926 15.9808C59.1585 15.9808 58.6667 15.9078 58.2209 15.7618C57.7752 15.6158 57.3871 15.3967 57.0605 15.1009C56.7339 14.8088 56.4803 14.4438 56.2997 14.0096C56.1191 13.5754 56.0307 13.0797 56.0307 12.5187V7.35062H54.5283L54.5245 7.34678Z" fill="#231F20"/>
<path d="M66.0788 0C66.6398 0 67.097 0.176753 67.4505 0.530259C67.804 0.883766 67.9808 1.34102 67.9808 1.90202C67.9808 2.46302 67.804 2.92027 67.4505 3.27378C67.097 3.62728 66.6398 3.80403 66.0788 3.80403C65.5178 3.80403 65.0567 3.62728 64.6993 3.27378C64.3381 2.92027 64.1575 2.46302 64.1575 1.90202C64.1575 1.34102 64.3381 0.883766 64.6993 0.530259C65.0605 0.176753 65.5216 0 66.0788 0ZM64.2959 4.98751H67.9193V15.8194H64.2959V4.98751Z" fill="#231F20"/>
<path d="M75.6888 4.86456C76.5841 4.86456 77.3948 4.99904 78.121 5.26417C78.8473 5.53314 79.4736 5.90586 79.9923 6.38617C80.5111 6.86648 80.9145 7.44669 81.195 8.1268C81.4755 8.80692 81.6138 9.56004 81.6138 10.39C81.6138 11.22 81.4755 11.9923 81.195 12.6724C80.9145 13.3525 80.5149 13.9328 79.9923 14.4131C79.4697 14.8934 78.8473 15.2661 78.121 15.5351C77.3948 15.804 76.5841 15.9347 75.6888 15.9347C74.7935 15.9347 73.9789 15.8002 73.245 15.5351C72.5111 15.2699 71.8847 14.8934 71.3622 14.4131C70.8396 13.9328 70.44 13.3525 70.1595 12.6724C69.879 11.9923 69.7406 11.2315 69.7406 10.39C69.7406 9.54851 69.879 8.80692 70.1595 8.1268C70.44 7.44669 70.8396 6.86648 71.3622 6.38617C71.8847 5.90586 72.5111 5.53314 73.245 5.26417C73.9789 4.99904 74.7935 4.86456 75.6888 4.86456ZM75.6888 7.7464C74.9933 7.7464 74.4361 7.99232 74.0173 8.48799C73.5985 8.98367 73.3871 9.6292 73.3871 10.4323C73.3871 11.2354 73.5985 11.9001 74.0173 12.3958C74.4361 12.8915 74.9933 13.1374 75.6888 13.1374C76.3842 13.1374 76.9222 12.8915 77.341 12.3958C77.7599 11.9001 77.9712 11.2469 77.9712 10.4323C77.9712 9.61768 77.7599 8.98367 77.341 8.48799C76.9222 7.99232 76.3689 7.7464 75.6888 7.7464Z" fill="#231F20"/>
<path d="M83.4198 15.8194V4.98751H87.0432V6.7512C87.804 5.48319 88.9914 4.84918 90.609 4.84918C91.2085 4.84918 91.7502 4.94524 92.2306 5.14121C92.7109 5.33333 93.1258 5.60999 93.4717 5.97118C93.8175 6.33237 94.0865 6.76657 94.2709 7.27377C94.4592 7.78098 94.5514 8.3535 94.5514 8.9952V15.8232H90.928V10.0173C90.928 9.4025 90.7666 8.91835 90.4477 8.56484C90.1287 8.21133 89.6868 8.03458 89.1258 8.03458C88.5111 8.04611 88.0192 8.25744 87.6542 8.66474C87.2892 9.07204 87.0855 9.59462 87.0432 10.2363V15.8232H83.4198V15.8194Z" fill="#231F20"/>
<path d="M104.204 8.41114C103.524 8.06532 102.886 7.79251 102.29 7.60038C101.695 7.40826 101.18 7.30836 100.738 7.30836C100.442 7.30836 100.208 7.36599 100.027 7.47742C99.8463 7.58886 99.7579 7.76177 99.7579 7.98847C99.7579 8.23055 99.8963 8.41883 100.177 8.55716C100.457 8.69548 100.807 8.82613 101.23 8.94909C101.648 9.0682 102.106 9.20653 102.59 9.36023C103.078 9.51393 103.531 9.71758 103.95 9.97118C104.369 10.2248 104.722 10.5514 105.003 10.951C105.283 11.3506 105.422 11.8655 105.422 12.4918C105.422 13.0528 105.31 13.5485 105.084 13.975C104.857 14.4015 104.538 14.7666 104.123 15.0663C103.708 15.366 103.22 15.5927 102.651 15.7464C102.083 15.9001 101.464 15.9769 100.799 15.9769C99.877 15.9769 98.9971 15.8463 98.1556 15.585C97.3141 15.3237 96.561 14.9395 95.8924 14.4323L97.0336 12.1306C97.6599 12.5572 98.3093 12.8876 98.9779 13.122C99.6465 13.3564 100.281 13.4717 100.88 13.4717C101.199 13.4717 101.464 13.4179 101.671 13.3103C101.879 13.2027 101.983 13.0375 101.983 12.8108C101.983 12.5572 101.844 12.3612 101.572 12.219C101.299 12.0807 100.953 11.9462 100.542 11.8194C100.127 11.6926 99.6811 11.5581 99.2008 11.4083C98.7205 11.2622 98.2709 11.0663 97.8598 10.8165C97.4448 10.5706 97.1028 10.2478 96.83 9.85591C96.5572 9.46398 96.4188 8.95293 96.4188 8.32277C96.4188 7.76177 96.5303 7.26225 96.7608 6.82036C96.9875 6.37848 97.2988 6.01345 97.6907 5.72142C98.0826 5.42939 98.5552 5.20269 99.1009 5.04899C99.6465 4.89529 100.242 4.81844 100.884 4.81844C101.683 4.81844 102.467 4.92603 103.235 5.13737C104.004 5.3487 104.734 5.66378 105.429 6.07877L104.208 8.40346L104.204 8.41114Z" fill="#231F20"/>
</g>
<defs>
<clipPath id="clip0_2_5">
<rect width="105.426" height="16" fill="white"/>
</clipPath>
</defs>
</svg>
