<svg width="106" height="16" viewBox="0 0 106 16" fill="none" xmlns="http://www.w3.org/2000/svg">
<g clip-path="url(#clip0_3_303)">
<path d="M9.85207 11.2545C9.85207 11.9999 9.74063 12.6685 9.51009 13.2564C9.28338 13.8443 8.95677 14.3361 8.53026 14.7396C8.10375 15.1392 7.58501 15.4466 6.97791 15.6618C6.3708 15.8769 5.68684 15.9845 4.92603 15.9845C3.91162 15.9845 2.99712 15.7886 2.18252 15.3928C1.36792 14.997 0.641691 14.4399 0 13.7213L1.72142 11.2391C2.22863 11.7732 2.74736 12.169 3.27378 12.4187C3.80019 12.6723 4.26513 12.7991 4.66475 12.7991C5.10663 12.7991 5.45629 12.6608 5.71758 12.388C5.97887 12.1152 6.10951 11.7117 6.10951 11.1776V1.802H9.85591V11.2545H9.85207Z" fill="white"/>
<path d="M19.3622 8.41106C18.682 8.06524 18.0442 7.79242 17.4486 7.6003C16.853 7.40818 16.3381 7.30827 15.8963 7.30827C15.6004 7.30827 15.366 7.36591 15.1854 7.47734C15.0048 7.58877 14.9164 7.76168 14.9164 7.98839C14.9164 8.23046 15.0548 8.41874 15.3353 8.55707C15.6158 8.6954 15.9654 8.82604 16.3881 8.949C16.8069 9.06812 17.2642 9.20645 17.7483 9.36015C18.2363 9.51384 18.6897 9.71749 19.1086 9.9711C19.5274 10.2247 19.8809 10.5513 20.1614 10.9509C20.4419 11.3505 20.5802 11.8654 20.5802 12.4917C20.5802 13.0527 20.4688 13.5484 20.2421 13.9749C20.0154 14.4015 19.6965 14.7665 19.2815 15.0662C18.8665 15.3659 18.3785 15.5926 17.8098 15.7463C17.2411 15.9 16.6225 15.9769 15.9577 15.9769C15.0355 15.9769 14.1556 15.8462 13.3141 15.5849C12.4726 15.3236 11.7195 14.9394 11.0509 14.4322L12.1921 12.1306C12.8184 12.5571 13.4678 12.8875 14.1364 13.1219C14.805 13.3563 15.439 13.4716 16.0384 13.4716C16.3574 13.4716 16.6225 13.4178 16.83 13.3102C17.0375 13.2026 17.1412 13.0374 17.1412 12.8107C17.1412 12.5571 17.0029 12.3611 16.7301 12.2189C16.4573 12.0806 16.1114 11.9461 15.7003 11.8193C15.2853 11.6925 14.8396 11.558 14.3593 11.4082C13.879 11.2622 13.4294 11.0662 13.0183 10.8164C12.6033 10.5705 12.2613 10.2478 11.9885 9.85582C11.7157 9.46389 11.5773 8.95285 11.5773 8.32268C11.5773 7.76168 11.6888 7.26216 11.9193 6.82028C12.146 6.3784 12.4573 6.01336 12.8492 5.72134C13.2411 5.42931 13.7137 5.20261 14.2594 5.04891C14.805 4.89521 15.4006 4.81836 16.0423 4.81836C16.8415 4.81836 17.6254 4.92595 18.3939 5.13728C19.1624 5.34862 19.8924 5.6637 20.5879 6.07869L19.366 8.40337L19.3622 8.41106Z" fill="white"/>
<path d="M27.5312 4.8645C28.4265 4.8645 29.2373 4.99899 29.9635 5.26412C30.6897 5.53309 31.316 5.90581 31.8348 6.38612C32.3535 6.86642 32.757 7.44663 33.0375 8.12675C33.318 8.80687 33.4563 9.55999 33.4563 10.39C33.4563 11.2199 33.318 11.9923 33.0375 12.6724C32.757 13.3525 32.3574 13.9327 31.8348 14.413C31.3122 14.8933 30.6897 15.266 29.9635 15.535C29.2373 15.804 28.4265 15.9346 27.5312 15.9346C26.6359 15.9346 25.8213 15.8001 25.0874 15.535C24.3535 15.2699 23.7272 14.8933 23.2046 14.413C22.682 13.9327 22.2824 13.3525 22.0019 12.6724C21.7214 11.9923 21.5831 11.2315 21.5831 10.39C21.5831 9.54846 21.7214 8.80687 22.0019 8.12675C22.2824 7.44663 22.682 6.86642 23.2046 6.38612C23.7272 5.90581 24.3535 5.53309 25.0874 5.26412C25.8213 4.99899 26.6359 4.8645 27.5312 4.8645ZM27.5312 7.74635C26.8357 7.74635 26.2786 7.99226 25.8598 8.48794C25.4409 8.98362 25.2296 9.62915 25.2296 10.4322C25.2296 11.2353 25.4409 11.9 25.8598 12.3957C26.2786 12.8914 26.8357 13.1373 27.5312 13.1373C28.2267 13.1373 28.7647 12.8914 29.1835 12.3957C29.6023 11.9 29.8136 11.2468 29.8136 10.4322C29.8136 9.61762 29.6023 8.98362 29.1835 8.48794C28.7647 7.99226 28.2113 7.74635 27.5312 7.74635Z" fill="white"/>
<path d="M38.6859 11.7734C38.6859 12.1615 38.7781 12.442 38.9548 12.6149C39.1316 12.7878 39.3583 12.8762 39.6273 12.8762C39.9347 12.8762 40.2767 12.7839 40.6494 12.5957L40.9491 15.539C40.6033 15.685 40.2536 15.8003 39.9078 15.881C39.562 15.9617 39.2123 16.0001 38.8665 16.0001C38.3593 16.0001 37.8751 15.9155 37.414 15.7503C36.9529 15.5851 36.5495 15.3315 36.2036 14.9972C35.854 14.6629 35.5812 14.2441 35.3737 13.7369C35.1662 13.2297 35.0624 12.6302 35.0624 11.9348V0.960693H38.6859V11.7734Z" fill="white"/>
<path d="M49.2181 15.8194V14.0788C48.8569 14.7051 48.3843 15.1778 47.7964 15.489C47.2085 15.8041 46.536 15.9655 45.7752 15.9808C45.2027 15.9808 44.6724 15.8848 44.1921 15.6888C43.7118 15.4967 43.3045 15.22 42.9702 14.8588C42.6359 14.4976 42.3747 14.0634 42.1902 13.5485C42.0019 13.0337 41.9097 12.465 41.9097 11.8348V4.98755H45.5332V10.8166C45.5332 11.4314 45.6869 11.9117 45.9942 12.2575C46.3016 12.6071 46.7205 12.7801 47.2546 12.7801C47.8694 12.7685 48.3497 12.538 48.6955 12.0884C49.0413 11.6427 49.2181 11.0586 49.2181 10.3363V4.98755H52.8415V15.8194H49.2181Z" fill="white"/>
<path d="M54.5245 7.34681V4.98369H56.0269V2.50146H59.6311V4.98369H62.4323V7.34681H59.6311V11.9539C59.6311 12.342 59.7157 12.6263 59.8809 12.8146C60.0461 13.0029 60.2767 13.0951 60.5725 13.0951C60.7992 13.0951 61.0298 13.0567 61.2642 12.9837C61.4986 12.9107 61.7214 12.8262 61.9366 12.7339L62.6167 15.2584C62.2286 15.4851 61.7791 15.6619 61.2642 15.7887C60.7493 15.9155 60.2267 15.9808 59.6926 15.9808C59.1585 15.9808 58.6667 15.9078 58.221 15.7618C57.7752 15.6158 57.3871 15.3968 57.0605 15.1009C56.7339 14.8089 56.4803 14.4438 56.2997 14.0096C56.1191 13.5754 56.0308 13.0798 56.0308 12.5188V7.35065H54.5284L54.5245 7.34681Z" fill="white"/>
<path d="M66.0788 0C66.6398 0 67.097 0.176753 67.4505 0.530259C67.804 0.883766 67.9808 1.34102 67.9808 1.90202C67.9808 2.46302 67.804 2.92027 67.4505 3.27378C67.097 3.62728 66.6398 3.80403 66.0788 3.80403C65.5178 3.80403 65.0567 3.62728 64.6993 3.27378C64.3382 2.92027 64.1576 2.46302 64.1576 1.90202C64.1576 1.34102 64.3382 0.883766 64.6993 0.530259C65.0605 0.176753 65.5216 0 66.0788 0ZM64.2959 4.98751H67.9193V15.8194H64.2959V4.98751Z" fill="white"/>
<path d="M75.6888 4.8645C76.5841 4.8645 77.3948 4.99899 78.121 5.26412C78.8473 5.53309 79.4736 5.90581 79.9923 6.38612C80.5111 6.86642 80.9145 7.44663 81.195 8.12675C81.4755 8.80687 81.6138 9.55999 81.6138 10.39C81.6138 11.2199 81.4755 11.9923 81.195 12.6724C80.9145 13.3525 80.5149 13.9327 79.9923 14.413C79.4698 14.8933 78.8473 15.266 78.121 15.535C77.3948 15.804 76.5841 15.9346 75.6888 15.9346C74.7935 15.9346 73.9789 15.8001 73.245 15.535C72.5111 15.2699 71.8847 14.8933 71.3622 14.413C70.8396 13.9327 70.44 13.3525 70.1595 12.6724C69.879 11.9923 69.7406 11.2315 69.7406 10.39C69.7406 9.54846 69.879 8.80687 70.1595 8.12675C70.44 7.44663 70.8396 6.86642 71.3622 6.38612C71.8847 5.90581 72.5111 5.53309 73.245 5.26412C73.9789 4.99899 74.7935 4.8645 75.6888 4.8645ZM75.6888 7.74635C74.9933 7.74635 74.4361 7.99226 74.0173 8.48794C73.5985 8.98362 73.3871 9.62915 73.3871 10.4322C73.3871 11.2353 73.5985 11.9 74.0173 12.3957C74.4361 12.8914 74.9933 13.1373 75.6888 13.1373C76.3843 13.1373 76.9222 12.8914 77.341 12.3957C77.7599 11.9 77.9712 11.2468 77.9712 10.4322C77.9712 9.61762 77.7599 8.98362 77.341 8.48794C76.9222 7.99226 76.3689 7.74635 75.6888 7.74635Z" fill="white"/>
<path d="M83.4198 15.8193V4.98745H87.0432V6.75114C87.8041 5.48313 88.9914 4.84912 90.609 4.84912C91.2085 4.84912 91.7503 4.94518 92.2306 5.14115C92.7109 5.33327 93.1259 5.60993 93.4717 5.97112C93.8175 6.33231 94.0865 6.76651 94.2709 7.27371C94.4592 7.78092 94.5514 8.35344 94.5514 8.99513V15.8232H90.928V10.0172C90.928 9.40243 90.7666 8.91829 90.4477 8.56478C90.1287 8.21127 89.6869 8.03452 89.1259 8.03452C88.5111 8.04605 88.0192 8.25738 87.6542 8.66468C87.2892 9.07198 87.0855 9.59456 87.0432 10.2362V15.8232H83.4198V15.8193Z" fill="white"/>
<path d="M104.204 8.41106C103.524 8.06524 102.886 7.79242 102.29 7.6003C101.695 7.40818 101.18 7.30827 100.738 7.30827C100.442 7.30827 100.208 7.36591 100.027 7.47734C99.8463 7.58877 99.7579 7.76168 99.7579 7.98839C99.7579 8.23046 99.8963 8.41874 100.177 8.55707C100.457 8.6954 100.807 8.82604 101.23 8.949C101.648 9.06812 102.106 9.20645 102.59 9.36015C103.078 9.51384 103.531 9.71749 103.95 9.9711C104.369 10.2247 104.722 10.5513 105.003 10.9509C105.283 11.3505 105.422 11.8654 105.422 12.4917C105.422 13.0527 105.31 13.5484 105.084 13.9749C104.857 14.4015 104.538 14.7665 104.123 15.0662C103.708 15.3659 103.22 15.5926 102.651 15.7463C102.083 15.9 101.464 15.9769 100.799 15.9769C99.8771 15.9769 98.9971 15.8462 98.1556 15.5849C97.3141 15.3236 96.561 14.9394 95.8924 14.4322L97.0336 12.1306C97.66 12.5571 98.3093 12.8875 98.9779 13.1219C99.6465 13.3563 100.281 13.4716 100.88 13.4716C101.199 13.4716 101.464 13.4178 101.671 13.3102C101.879 13.2026 101.983 13.0374 101.983 12.8107C101.983 12.5571 101.844 12.3611 101.572 12.2189C101.299 12.0806 100.953 11.9461 100.542 11.8193C100.127 11.6925 99.6811 11.558 99.2008 11.4082C98.7205 11.2622 98.2709 11.0662 97.8598 10.8164C97.4448 10.5705 97.1028 10.2478 96.83 9.85582C96.5572 9.46389 96.4188 8.95285 96.4188 8.32268C96.4188 7.76168 96.5303 7.26216 96.7608 6.82028C96.9875 6.3784 97.2988 6.01336 97.6907 5.72134C98.0826 5.42931 98.5553 5.20261 99.1009 5.04891C99.6465 4.89521 100.242 4.81836 100.884 4.81836C101.683 4.81836 102.467 4.92595 103.235 5.13728C104.004 5.34862 104.734 5.6637 105.429 6.07869L104.208 8.40337L104.204 8.41106Z" fill="white"/>
</g>
<defs>
<clipPath id="clip0_3_303">
<rect width="105.426" height="16" fill="white"/>
</clipPath>
</defs>
</svg>
