<svg width="75" height="64" viewBox="0 0 75 64" fill="none" xmlns="http://www.w3.org/2000/svg">
<path d="M0.788177 63.8424C0.945813 64 1.26108 64 1.41872 64H72.9852C73.1429 64 73.4581 64 73.6158 63.8424C73.7734 63.8424 73.931 63.6847 74.0887 63.5271C74.0887 63.5271 74.0887 63.5271 74.2463 63.3695C74.4039 63.2118 74.4039 63.2118 74.4039 63.0542V62.8966C74.4039 62.7389 74.5616 62.5813 74.5616 62.4236V24.9064C74.5616 24.9064 74.5616 24.9064 74.5616 24.7488V24.5911C74.5616 24.4335 74.5616 24.2759 74.4039 24.2759V24.1182C74.2463 23.9606 74.2463 23.803 74.0887 23.6453L62.7389 14.3448V1.57635C62.7389 0.630542 62.1084 0 61.1626 0H13.399C12.4532 0 11.8227 0.630542 11.8227 1.57635V14.3448L0.472907 23.6453C0.315271 23.803 0.157636 23.9606 0.157636 24.1182V24.2759C0.157636 24.4335 0 24.5911 0 24.5911V24.7488C0 24.7488 0 24.7488 0 24.9064V62.266C0 62.4236 5.98983e-07 62.5813 0.157636 62.7389V62.8966C0.157636 63.0542 0.315272 63.0542 0.315272 63.2118C0.315272 63.2118 0.315271 63.3695 0.472907 63.3695C0.472907 63.5271 0.630542 63.6847 0.788177 63.8424C0.788177 63.6847 0.788177 63.6847 0.788177 63.8424ZM12.2956 37.9901L17.9704 43.665L2.99507 58.6404V28.6897L12.2956 37.9901ZM20.8079 45.2414H53.7537L69.3596 60.8473H5.20197L20.8079 45.2414ZM62.1084 37.9901L71.4089 28.6897V58.4828L56.4335 43.5074L62.1084 37.9901ZM70.6207 25.064L62.5813 33.1034V18.4434L70.6207 25.064ZM59.4286 3.31035V36.2562L53.5961 42.0887H20.8079L14.9754 36.2562V3.31035H59.4286ZM11.8227 33.1034L3.78325 25.064L11.8227 18.601V33.1034Z" fill="white"/>
<path d="M37.0443 38.4632C39.0936 38.4632 40.9852 37.9903 42.7192 37.2021C43.5074 36.8868 43.8227 35.941 43.5074 35.1529C43.1921 34.3647 42.2463 34.0494 41.4581 34.5223C40.1971 35.1529 38.7783 35.4681 37.202 35.4681C32.3153 35.4681 28.2168 31.212 28.2168 26.4829C28.2168 23.9607 29.1626 21.7538 30.8966 19.8622C32.6305 18.1282 34.9951 17.1824 37.3596 17.1824C41.3005 17.1824 44.9261 19.7046 46.0296 23.4878C46.3448 24.276 46.0296 24.9066 45.5567 25.3795C45.399 25.6947 44.7685 26.01 43.9803 25.8524C43.665 25.8524 43.3498 25.5371 42.8768 24.9066C42.2463 22.2268 39.8818 20.3351 37.202 20.3351C33.8916 20.3351 31.2118 23.0149 31.2118 26.3253C31.2118 29.6356 33.8916 32.0001 37.202 32.0001C39.5665 32.0001 41.6158 30.5814 42.5616 28.5322C42.8769 28.6898 43.1921 28.6898 43.3498 28.8474C44.9261 29.1627 46.6601 28.5322 47.7636 27.2711C49.0246 25.8524 49.3399 24.1184 48.867 22.3844C47.2906 17.3401 42.5616 13.8721 37.202 13.8721C33.8916 13.8721 30.7389 15.1332 28.3744 17.4977C26.0099 19.8622 24.7488 23.0149 24.9064 26.3253C24.9064 32.7883 30.4237 38.3056 37.0443 38.4632ZM37.202 28.8474C35.6256 28.8474 34.3645 27.5864 34.3645 26.01C34.3645 24.4336 35.6256 23.1726 37.202 23.1726C38.7783 23.1726 40.0394 24.4336 40.0394 26.01C40.0394 27.5864 38.7783 28.8474 37.202 28.8474Z" fill="white"/>
</svg>
